<?xml version="1.0" encoding="utf-8"?>
<!-- Svg Vector Icons : http://www.onlinewebfonts.com/icon -->
<!DOCTYPE svg PUBLIC "-//W3C//DTD SVG 1.1//EN" "http://www.w3.org/Graphics/SVG/1.1/DTD/svg11.dtd">
<svg version="1.1" xmlns="http://www.w3.org/2000/svg" xmlns:xlink="http://www.w3.org/1999/xlink" x="0px" y="0px" viewBox="0 0 1000 1000" enable-background="new 0 0 1000 1000" xml:space="preserve">
<metadata> Svg Vector Icons : http://www.onlinewebfonts.com/icon </metadata>
<g><path d="M591.3,227.1c0-18.6-13.7-33.7-30.7-33.7c-16.9,0-30.7,15.1-30.7,33.7v269.9c0,12.2,3.8,19.2,11.6,26.4l153.6,153.6c10.9,10.9,29.4,10,41.3-2c12-12,12.9-30.5,2-41.3c0,0-143.4-143.4-145.7-145.7c-2.2-2.2-1.6-4.8-1.6-4.8V227.1z"/><path d="M560.7,70.7c-200.7,0-369.2,137.7-416.3,323.8L67.3,277.9c-10.3-15.6-30.2-20.7-44.3-11.4c-14.1,9.3-17.2,29.6-6.9,45.2l112.4,169.9c0.3,0.5,6.5,12.2,18.3,14.3c16.5,2.7,23-2.3,29.7-5.4l175.8-116.3c16.2-10.7,21.7-30.8,12.4-45c-9.3-14.1-30-16.9-46.2-6.2l-111.2,73.5c3.9-13.5,8.7-26.8,14.2-39.8c18.5-43.8,45.1-83.2,78.9-117c33.8-33.8,73.2-60.4,117-78.9c45.3-19.2,93.5-28.9,143.2-28.9s97.9,9.7,143.2,28.9c43.8,18.5,83.2,45.1,117,78.9c33.8,33.8,60.4,73.2,78.9,117c19.2,45.3,28.9,93.5,28.9,143.2s-9.7,97.9-28.9,143.2c-18.5,43.8-45.1,83.2-78.9,117s-73.2,60.4-117,78.9c-45.3,19.2-93.5,28.9-143.2,28.9s-97.9-9.7-143.2-28.9c-43.8-18.5-83.2-45.1-117-78.9c-19-19-35.7-39.8-49.9-62.1l0,0c-5.5-8-14.8-13.2-25.2-13.2c-16.9,0-30.7,13.7-30.7,30.7c0,6.7,2.1,12.8,5.8,17.9c76.5,117.9,209.3,195.8,360.3,195.8C797.8,929.3,990,737.1,990,500C990,262.9,797.8,70.7,560.7,70.7z"/></g>
</svg>